<svg xmlns="http://www.w3.org/2000/svg" xmlns:xlink="http://www.w3.org/1999/xlink" version="1.1" x="0px" y="0px" viewBox="0 0 1024 1280" style="enable-background:new 0 0 1024 1024;" xml:space="preserve"><g><g><g><path d="M548.4,789.3c-22.6,0-45.1,0-67.7,0c-49.4,0-98.8,0-148.1,0c-48.7,0-97.3,0-146,0c-15.7,0-31.3,0-47,0     c-4.1,0-8.2,0-12.4,0c-1,0-1.9,0-2.9,0c-0.2,0-0.4,0-0.6,0c-0.5,0-1.4-0.7-1.4,0c0-0.5,6.7,1.6,2.7,0.3c-0.9-0.2-1.7-0.4-2.5-0.7     c1.2,0.5,2.4,1,3.6,1.5c-0.4-0.4-2.8-1.8-3.3-1.9c0.6,0.1,4.5,4.3,2.1,1.5c-4.4-5,3,4.6-0.7-1c-2.1-3.1,1.1,1.8,1,2.4     c0.2-1.1-1.2-2.6-1-3.8c0,0,0.3,6.9,0.6,2.6c0-0.4,0-0.7,0-1.1c0-2.3,0-4.6,0-6.9c0-10.1,0-20.2,0-30.3c0-37.5,0-75.1,0-112.6     c0-50.6,0-101.2,0-151.9c0-52.2,0-104.4,0-156.6c0-42.3,0-84.6,0-126.9c0-20.6-0.1-41.1,0-61.7c0-0.5,0-0.9,0-1.4     c-0.2-4.8-1.5,4.5-0.4,1.9c0.3-0.7,0.9-2.5,0.8-3.2c0.2,3.7-2.4,4.7-1,2.4c0.2-0.4,0.4-0.7,0.6-1.1c1.4-2.1,0.9-1.5-1.7,2     c0.4-0.3,2.4-2.3,2.7-2.7c-1.9,3.1-4.3,3.1-1.4,1.3c3.1-1.9,1.5,0.9-1.9,0.6c0.4,0,2-0.5,2.5-0.7c4.6-1.5-6.2,0-1.3,0.3     c0.1,0,0.1,0,0.2,0c0.5,0,1,0,1.5,0c6.8,0,13.6,0,20.4,0c31.9,0,63.9,0,95.8,0c47.9,0,95.8,0,143.6,0c53.2,0,106.4,0,159.7,0     c47.9,0,95.8,0,143.6,0c32.3,0,64.5,0,96.8,0c7,0,14.1,0,21.1,0c0.6,0,1.1,0,1.7,0c0.1,0,0.2,0,0.3,0c4.3-0.2-2.6-0.6-2.6-0.6     c1.2-0.2,2.7,1.2,3.8,1c-1.2-0.5-2.4-1-3.6-1.5c0.8,0.4,1.5,0.8,2.3,1.2c3.3,1.5-1.7-1.1-2-1.7c0.2,0.5,2.2,2.5,2.7,2.7     c-0.6-0.3-3.2-5.2-1.7-2c0.3,0.7,2.5,4.6,0.4,0.5c-1.9-4-0.4-0.2-0.1,0.7c1.3,4-0.8-2.6-0.3-2.7c-0.4,0,0.1,1,0,1.5     c0,0.7,0,1.3,0,2c0,30.3,0,60.7,0,91c0,51.6,0,103.3,0,154.9c0,40.8,0,81.7,0,122.5c0,6.3,0,12.6,0,18.9c0,13.1,11.5,25.6,25,25     c13.5-0.6,25-11,25-25c0-24.6,0-49.2,0-73.8c0-51.1,0-102.1,0-153.2c0-44.6,0-89.2,0-133.8c0-9.2,0.1-18.5,0-27.7     c-0.2-28.4-22.7-49.8-50.8-49.9c-20.6-0.1-41.2,0-61.7,0c-41.8,0-83.6,0-125.4,0c-52.6,0-105.3,0-157.9,0c-52,0-104.1,0-156.1,0     c-41.2,0-82.4,0-123.6,0c-19,0-38.1-0.1-57.1,0c-28.1,0.2-49.8,22.3-50,50.3c0,6.7,0,13.4,0,20.1c0,33.1,0,66.2,0,99.3     c0,49.3,0,98.6,0,147.9c0,53.5,0,107,0,160.4c0,45.6,0,91.3,0,136.9c0,25.8,0,51.5,0,77.3c0,1.9,0,3.8,0,5.8     c0.3,18,9.7,35.6,26.2,43.9c12.4,6.2,24.4,5.7,37.5,5.7c38.2,0,76.5,0,114.7,0c53,0,105.9,0,158.9,0c39.5,0,79.1,0,118.6,0     c5.9,0,11.8,0,17.8,0c13.1,0,25.6-11.5,25-25C572.8,800.8,562.4,789.3,548.4,789.3L548.4,789.3z"/></g></g><g><g><path d="M548.4,789.3c-24.3,0-48.7,0-73,0c-52.3,0-104.5,0-156.8,0c-49,0-98,0-147,0c-13.5,0-27.1,0-40.6,0     c-2.3,0-4.7-0.1-7,0c-4.9,0.2,5.6,1.7,1.2,0.3c-0.5-0.2-2.1-0.7-2.5-0.7c1.2,0.5,2.4,1,3.6,1.5c-0.8-0.4-1.5-0.8-2.3-1.2     c-2.2-1.1-0.5-2.1,2,1.7c-0.6-0.6-1.3-1.1-1.8-1.8c-1.7-1.9-1.2-1.2,1.5,2.1c-0.1-0.5-1.1-1.8-1.3-2.2c-2.5-3.9,1.3,5.8,0.6,1.2     c-0.1-0.7-0.3-2-0.6-2.6c1.3,3,0.4,5.8,0.6,2.6c0-0.4,0-0.8,0-1.3c-0.3-42.6,0-85.3,0-127.9c0-1.4,0-2.7,0-4.1     c-2.4,5.9-4.9,11.8-7.3,17.7c34.6-34.3,69.2-68.6,103.8-102.9c4.9-4.8,9.7-9.6,14.6-14.4c-11.8,0-23.6,0-35.4,0     c15.3,15.2,30.5,30.3,45.8,45.5c24.3,24.1,48.6,48.3,72.9,72.4c5.6,5.5,11.1,11.1,16.7,16.6c9.6,9.5,25.7,9.6,35.4,0     c11.1-11.1,22.3-22.2,33.4-33.3c26.8-26.6,53.5-53.3,80.3-79.9c32.4-32.2,64.8-64.5,97.2-96.7c28-27.9,56-55.7,84-83.6     c13.6-13.5,27.7-26.6,40.8-40.6c0.2-0.2,0.4-0.4,0.6-0.6c-11.8,0-23.6,0-35.4,0c16.1,16,32.2,31.9,48.4,47.9     c25.6,25.3,51.1,50.6,76.7,75.9c5.9,5.8,11.8,11.7,17.7,17.5c-2.4-5.9-4.9-11.8-7.3-17.7c0,16.5,0,32.9,0,49.4     c0,13.1,11.5,25.6,25,25c13.5-0.6,25-11,25-25c0-16.4,0.6-32.9,0-49.3c-0.4-10.2-5.6-16-12.1-22.4c-5-4.9-10-9.9-15-14.8     c-32.1-31.8-64.2-63.6-96.4-95.4c-8.9-8.8-17.8-17.6-26.7-26.4c-9.6-9.5-25.7-9.6-35.4,0c-11.1,11.1-22.3,22.2-33.4,33.3     c-26.8,26.6-53.5,53.3-80.3,79.9c-32.4,32.2-64.8,64.5-97.2,96.7c-28,27.9-56,55.7-84,83.6c-13.6,13.5-27.7,26.6-40.8,40.6     c-0.2,0.2-0.4,0.4-0.6,0.6c11.8,0,23.6,0,35.4,0c-15.3-15.2-30.5-30.3-45.8-45.5c-24.3-24.1-48.6-48.3-72.9-72.4     c-5.6-5.5-11.1-11.1-16.7-16.6c-9.6-9.5-25.7-9.5-35.4,0c-16.1,15.9-32.2,31.9-48.3,47.8c-21.7,21.5-43.4,43-65.1,64.5     c-1.6,1.6-3.3,3.2-4.9,4.9c-6,6.4-7.4,13.8-7.4,21.8c0,13,0,26,0,39c0,29.4,0,58.8,0,88.2c0,27.9,20.9,50.5,49.2,51.1     c3.6,0.1,7.1,0,10.7,0c21.4,0,42.8,0,64.2,0c33.2,0,66.3,0,99.5,0c36.2,0,72.4,0,108.6,0c30.4,0,60.7,0,91.1,0     c16.1,0,32.2,0,48.2,0c0.7,0,1.5,0,2.2,0c13.1,0,25.6-11.5,25-25C572.8,800.8,562.4,789.3,548.4,789.3L548.4,789.3z"/></g></g><g><g><path d="M335.9,290.8c0,1.4,0,2.8-0.1,4.2c0,0.7-0.1,1.4-0.2,2.1c-0.2,3.2,1-5.7,0.3-2.6     c-0.6,2.9-1.2,5.7-2.1,8.6c-0.4,1.3-1,2.5-1.3,3.8c2-6.9,1.1-2.5,0.1-0.5c-1.3,2.6-2.9,4.9-4.4,7.4c-2.1,3.4,4.1-4.6,0.3-0.4     c-0.9,1-1.7,2-2.6,2.9c-2,2-4.3,3.7-6.3,5.7c0.2-0.3,5.2-3.6,1.9-1.6c-0.6,0.3-1.1,0.7-1.6,1.1c-1.1,0.7-2.2,1.4-3.4,2     c-1.2,0.6-2.3,1.2-3.5,1.8c-4.9,2.5,5.1-1.8-0.2,0c-2.5,0.9-5.1,1.6-7.8,2.2c-1,0.2-5.9,1-1.4,0.4c4.5-0.6-1.6,0-2.9,0.1     c-2.8,0.1-5.6-0.1-8.4-0.3c-2.7-0.1,3.5,0.5,3.2,0.5c-0.6-0.2-1.4-0.2-2-0.4c-1.8-0.3-3.5-0.8-5.3-1.2c-1.3-0.4-2.6-0.8-3.8-1.2     c-0.6-0.2-1.2-0.5-1.9-0.7c-0.2,0,5.1,2.5,2.9,1.2c-2.6-1.6-5.5-2.8-8.1-4.4c-0.9-0.6-4.6-3.4-1.2-0.7c3.4,2.7-0.3-0.3-1-0.9     c-2.3-2-4.4-4.3-6.4-6.5c-0.4-0.5-0.8-1.1-1.2-1.5c-0.1-0.1,3.1,4.6,1.9,2.4c-0.7-1.3-1.7-2.5-2.5-3.8c-0.7-1.1-1.3-2.3-1.9-3.5     c-0.5-1-2.7-5.9-1-1.8c1.7,4-0.1-0.4-0.4-1.4c-0.5-1.5-0.9-3-1.3-4.5c-0.3-1.3-0.6-2.7-0.8-4c-0.8-4,0.5,6,0.1,0.5     c-0.2-3-0.3-6.1-0.1-9.1c0-0.7,0.1-1.4,0.2-2.1c0.1-2.7-0.5,3.5-0.5,3.2c0.4-1.5,0.6-3.1,0.9-4.7c0.7-2.8,1.9-5.5,2.6-8.3     c0.1-0.2-2.5,5.2-1.2,2.9c0.3-0.6,0.6-1.2,0.8-1.8c0.8-1.6,1.6-3.1,2.5-4.6c0.7-1.1,1.5-2.2,2.1-3.3c2.2-3.6-3.5,4-0.7,0.9     c2-2.3,4.1-4.6,6.3-6.6c1-0.9,2.1-1.6,3-2.5c0.1-0.1-4.6,3.1-2.4,1.9c0.6-0.3,1.1-0.8,1.6-1.1c2.6-1.7,5.3-3.1,8-4.5     c3.8-2-5.1,1.8-1.1,0.5c1.3-0.4,2.5-0.9,3.8-1.3c1.5-0.4,3-0.8,4.6-1.2c0.7-0.1,1.3-0.3,2-0.4c3.4-0.7-1.8,0.3-2.6,0.3     c2.8,0,5.6-0.4,8.4-0.4c1.6,0,3.2,0.2,4.9,0.3c2.7,0.1-3.5-0.5-3.2-0.5c0.9,0.2,1.8,0.3,2.7,0.5c3.3,0.7,6.5,1.8,9.7,2.8     c2.5,0.8-3.1-1.4-2.9-1.3c0.7,0.5,1.6,0.7,2.4,1.1c1.4,0.7,2.7,1.4,4.1,2.2c1.5,0.9,2.9,2,4.4,2.9c2.2,1.2-2.5-2.1-2.4-1.9     c0.6,0.6,1.4,1.1,2,1.7c2.3,2,4.5,4.2,6.5,6.5c0.5,0.6,1.1,1.4,1.7,2c-0.5-0.5-3.3-4.7-1.6-1.9c0.8,1.3,1.7,2.6,2.5,3.9     c0.8,1.3,1.5,2.7,2.2,4.1c0.4,0.7,0.7,1.7,1.1,2.4c-0.4-0.6-2.1-5.5-1-2.3c1,3,1.9,6,2.6,9.1c0.2,0.9,0.2,1.8,0.5,2.7     c-0.2-0.7-0.6-6-0.4-2.5C335.8,287,335.9,288.9,335.9,290.8c0.1,13.1,11.4,25.6,25,25c13.4-0.6,25.2-11,25-25     c-0.4-37.7-24.1-69.7-59.2-82.6c-32.4-11.9-72.3-0.9-94.2,25.8c-23.6,28.6-28.4,69.4-8.8,101.7c19.5,32.2,56.7,47.4,93.3,40.5     c40.1-7.6,68.5-45.4,68.9-85.3c0.1-13.1-11.6-25.6-25-25C347.2,266.4,336.1,276.7,335.9,290.8z"/></g></g><g><g><path d="M766.9,642.4c0,29.9,0,59.8,0,89.7c0,47.5,0,94.9,0,142.4c0,10.9,0,21.8,0,32.8c0,13.1,11.5,25.6,25,25     c13.5-0.6,25-11,25-25c0-29.9,0-59.8,0-89.7c0-47.5,0-94.9,0-142.4c0-10.9,0-21.8,0-32.8c0-13.1-11.5-25.6-25-25     C778.3,618,766.9,628.4,766.9,642.4L766.9,642.4z"/></g></g><g><g><path d="M659.5,799.8c29.9,0,59.8,0,89.7,0c47.5,0,94.9,0,142.4,0c10.9,0,21.8,0,32.8,0c13.1,0,25.6-11.5,25-25     c-0.6-13.5-11-25-25-25c-29.9,0-59.8,0-89.7,0c-47.5,0-94.9,0-142.4,0c-10.9,0-21.8,0-32.8,0c-13.1,0-25.6,11.5-25,25     C635.1,788.4,645.5,799.8,659.5,799.8L659.5,799.8z"/></g></g></g></svg>