<?xml version="1.0" encoding="UTF-8"?>
<svg version="1.1" xmlns="http://www.w3.org/2000/svg" width="512" height="512">
<path d="M0 0 C1.07121094 0.37382813 2.14242188 0.74765625 3.24609375 1.1328125 C14.865978 5.6031374 24.057972 12.4581316 33 21 C33.92232422 21.81017578 33.92232422 21.81017578 34.86328125 22.63671875 C49.4178965 35.91989635 57.42273369 57.34076642 58.31640625 76.6171875 C58.76675348 92.54472247 56.90747538 106.20144128 50.375 120.75 C50.09333984 121.38671631 49.81167969 122.02343262 49.52148438 122.67944336 C41.8974152 138.40707039 28.08682259 150.28989733 15.84375 162.36224365 C13.37067043 164.80418363 10.90646345 167.25504479 8.44140625 169.70507812 C3.6360544 174.47861862 -1.17876899 179.24249906 -6 184 C-1.31179066 189.63568661 3.69985408 194.83103966 8.8984375 199.99609375 C9.73339752 200.82963882 10.56835754 201.6631839 11.42861938 202.52198792 C14.07505848 205.16286524 16.72496759 207.80022896 19.375 210.4375 C21.17861643 212.23609649 22.98200425 214.03492227 24.78515625 215.83398438 C29.18746261 220.22531248 33.59261714 224.61376729 38 229 C43.50709066 224.42616858 48.53840298 219.53603517 53.5390625 214.41796875 C55.18834183 212.74629058 56.8380967 211.07508147 58.48828125 209.40429688 C61.05320476 206.80245216 63.61495734 204.19777691 66.16845703 201.5847168 C84.66320205 182.68013081 84.66320205 182.68013081 96 176 C97.05405029 175.37653687 97.05405029 175.37653687 98.12939453 174.74047852 C117.63564104 163.93762151 141.68106528 161.51946755 163.18261719 167.1652832 C185.55115894 173.67075519 204.29080863 187.47940964 216.13671875 207.60546875 C218.89242412 212.62582088 221.16443515 217.57428626 223 223 C223.391875 224.11890625 223.78375 225.2378125 224.1875 226.390625 C229.44438935 243.84057716 229.03658847 263.81742303 223 281 C222.43925781 282.60681641 222.43925781 282.60681641 221.8671875 284.24609375 C217.39898653 295.86045721 210.54799072 305.06903479 202 314 C201.42507813 314.63808594 200.85015625 315.27617187 200.2578125 315.93359375 C187.92894428 329.17680388 167.51407119 338.10936592 149.5546875 339.14038086 C132.4770521 339.73899378 117.89035043 338.3977028 102.25 331.375 C101.61328369 331.09333984 100.97656738 330.81167969 100.32055664 330.52148438 C84.59292961 322.8974152 72.71010267 309.08682259 60.63775635 296.84375 C58.19581637 294.37067043 55.74495521 291.90646345 53.29492188 289.44140625 C48.52138138 284.6360544 43.75750094 279.82123101 39 275 C33.36431339 279.68820934 28.16896034 284.69985408 23.00390625 289.8984375 C22.17036118 290.73339752 21.3368161 291.56835754 20.47801208 292.42861938 C17.83713476 295.07505848 15.19977104 297.72496759 12.5625 300.375 C10.76390351 302.17861643 8.96507773 303.98200425 7.16601562 305.78515625 C2.77468752 310.18746261 -1.61376729 314.59261714 -6 319 C-1.42616858 324.50709066 3.46396483 329.53840298 8.58203125 334.5390625 C10.25370942 336.18834183 11.92491853 337.8380967 13.59570312 339.48828125 C16.19754784 342.05320476 18.80222309 344.61495734 21.4152832 347.16845703 C40.31986919 365.66320205 40.31986919 365.66320205 47 377 C47.62346313 378.05405029 47.62346313 378.05405029 48.25952148 379.12939453 C59.10921599 398.72021347 61.43962176 422.74069161 55.76879883 444.31884766 C51.34779824 459.6276679 43.95951388 471.52706745 33 483 C32.45988281 483.61488281 31.91976563 484.22976563 31.36328125 484.86328125 C22.24168105 494.85798172 9.60617761 500.7433686 -3 505 C-3.96421875 505.3403125 -4.9284375 505.680625 -5.921875 506.03125 C-22.27388275 510.80426848 -42.0384182 509.60762805 -58 504 C-59.07121094 503.62617188 -60.14242187 503.25234375 -61.24609375 502.8671875 C-72.865978 498.3968626 -82.057972 491.5418684 -91 483 C-91.61488281 482.45988281 -92.22976562 481.91976563 -92.86328125 481.36328125 C-107.4178965 468.08010365 -115.42273369 446.65923358 -116.31640625 427.3828125 C-116.76675348 411.45527753 -114.90747538 397.79855872 -108.375 383.25 C-108.09333984 382.61328369 -107.81167969 381.97656738 -107.52148438 381.32055664 C-99.8974152 365.59292961 -86.08682259 353.71010267 -73.84375 341.63775635 C-71.37067043 339.19581637 -68.90646345 336.74495521 -66.44140625 334.29492188 C-61.6360544 329.52138138 -56.82123101 324.75750094 -52 320 C-56.68820934 314.36431339 -61.69985408 309.16896034 -66.8984375 304.00390625 C-67.73339752 303.17036118 -68.56835754 302.3368161 -69.42861938 301.47801208 C-72.07505848 298.83713476 -74.72496759 296.19977104 -77.375 293.5625 C-79.17861643 291.76390351 -80.98200425 289.96507773 -82.78515625 288.16601562 C-87.18746261 283.77468752 -91.59261714 279.38623271 -96 275 C-101.50709066 279.57383142 -106.53840298 284.46396483 -111.5390625 289.58203125 C-113.18834183 291.25370942 -114.8380967 292.92491853 -116.48828125 294.59570312 C-119.05320476 297.19754784 -121.61495734 299.80222309 -124.16845703 302.4152832 C-142.66320205 321.31986919 -142.66320205 321.31986919 -154 328 C-155.05405029 328.62346313 -155.05405029 328.62346313 -156.12939453 329.25952148 C-175.62856269 340.05845839 -199.69175401 342.49301263 -221.18481445 336.83251953 C-243.98567767 330.18748965 -263.39907259 315.70024535 -275.0390625 294.83398438 C-277.88399669 289.40432339 -280.04133639 283.80065763 -282 278 C-282.3403125 277.03578125 -282.680625 276.0715625 -283.03125 275.078125 C-287.80426848 258.72611725 -286.60762805 238.9615818 -281 223 C-280.62617188 221.92878906 -280.25234375 220.85757813 -279.8671875 219.75390625 C-275.3968626 208.134022 -268.5418684 198.942028 -260 190 C-259.45988281 189.38511719 -258.91976563 188.77023438 -258.36328125 188.13671875 C-245.08010365 173.5821035 -223.65923358 165.57726631 -204.3828125 164.68359375 C-188.45527753 164.23324652 -174.79855872 166.09252462 -160.25 172.625 C-159.61328369 172.90666016 -158.97656738 173.18832031 -158.32055664 173.47851562 C-142.59292961 181.1025848 -130.71010267 194.91317741 -118.63775635 207.15625 C-116.19581637 209.62932957 -113.74495521 212.09353655 -111.29492188 214.55859375 C-106.52138138 219.3639456 -101.75750094 224.17876899 -97 229 C-91.36431339 224.31179066 -86.16896034 219.30014592 -81.00390625 214.1015625 C-80.17036118 213.26660248 -79.3368161 212.43164246 -78.47801208 211.57138062 C-75.83713476 208.92494152 -73.19977104 206.27503241 -70.5625 203.625 C-68.76390351 201.82138357 -66.96507773 200.01799575 -65.16601562 198.21484375 C-60.77468752 193.81253739 -56.38623271 189.40738286 -52 185 C-56.57383142 179.49290934 -61.46396483 174.46159702 -66.58203125 169.4609375 C-68.25370942 167.81165817 -69.92491853 166.1619033 -71.59570312 164.51171875 C-74.19754784 161.94679524 -76.80222309 159.38504266 -79.4152832 156.83154297 C-98.31986919 138.33679795 -98.31986919 138.33679795 -105 127 C-105.62346313 125.94594971 -105.62346313 125.94594971 -106.25952148 124.87060547 C-117.06237849 105.36435896 -119.48053245 81.31893472 -113.8347168 59.81738281 C-107.32924481 37.44884106 -93.52059036 18.70919137 -73.39453125 6.86328125 C-68.37417912 4.10757588 -63.42571374 1.83556485 -58 0 C-56.88109375 -0.391875 -55.7621875 -0.78375 -54.609375 -1.1875 C-37.15942284 -6.44438935 -17.18257697 -6.03658847 0 0 Z M-69.4765625 43.31640625 C-80.76286591 55.07454508 -85.52838267 69.18153836 -85.421875 85.22924805 C-84.97663718 99.2029785 -79.380527 111.62907325 -69.859375 121.76171875 C-69.34457581 122.31425827 -68.82977661 122.86679779 -68.29937744 123.43608093 C-60.96792111 131.24177952 -53.34312841 138.76312412 -45.75 146.3125 C-44.21460759 147.84286206 -42.67944987 149.37345962 -41.14453125 150.90429688 C-37.43238063 154.60557576 -33.71737446 158.30396807 -30 162 C-26.75873951 160.57410806 -24.58311577 158.8403532 -22.0769043 156.3515625 C-21.31899094 155.60318115 -20.56107758 154.8547998 -19.78019714 154.08374023 C-18.96972427 153.27235596 -18.1592514 152.46097168 -17.32421875 151.625 C-16.4808345 150.78590088 -15.63745026 149.94680176 -14.76850891 149.08227539 C-12.98317599 147.30268674 -11.20046004 145.52046939 -9.42016602 143.73583984 C-6.71691957 141.02945374 -4.00069761 138.33660091 -1.28320312 135.64453125 C0.45393675 133.9096666 2.19028986 132.17401372 3.92578125 130.4375 C4.73018143 129.64230957 5.5345816 128.84711914 6.36335754 128.02783203 C12.99666497 121.34068162 19.00332505 114.07014848 22.8125 105.375 C23.19019531 104.53710938 23.56789063 103.69921875 23.95703125 102.8359375 C29.06948959 88.93464628 28.52902221 73.71059712 23 60 C16.21375066 45.56117161 4.12590468 34.73720925 -10.671875 29.0078125 C-32.33818877 22.4468865 -53.00129206 27.90657128 -69.4765625 43.31640625 Z M-243.0078125 217.37890625 C-253.21943326 231.14912212 -255.21627011 245.34339631 -254 262 C-251.34146065 276.97897028 -242.32618145 289.75536392 -230.25 298.8125 C-216.89633876 307.65224758 -200.94313636 310.21638268 -185.31640625 307.31640625 C-175.28310193 304.41361352 -166.85868007 300.01989151 -159.23828125 292.859375 C-158.68574173 292.34457581 -158.13320221 291.82977661 -157.56391907 291.29937744 C-149.75822048 283.96792111 -142.23687588 276.34312841 -134.6875 268.75 C-133.15713794 267.21460759 -131.62654038 265.67944987 -130.09570312 264.14453125 C-126.39442424 260.43238063 -122.69603193 256.71737446 -119 253 C-120.42589194 249.75873951 -122.1596468 247.58311577 -124.6484375 245.0769043 C-125.39681885 244.31899094 -126.1452002 243.56107758 -126.91625977 242.78019714 C-127.72764404 241.96972427 -128.53902832 241.1592514 -129.375 240.32421875 C-130.21409912 239.4808345 -131.05319824 238.63745026 -131.91772461 237.76850891 C-133.69731326 235.98317599 -135.47953061 234.20046004 -137.26416016 232.42016602 C-139.97054626 229.71691957 -142.66339909 227.00069761 -145.35546875 224.28320312 C-147.0903334 222.54606325 -148.82598628 220.80971014 -150.5625 219.07421875 C-151.35769043 218.26981857 -152.15288086 217.4654184 -152.97216797 216.63664246 C-159.65931838 210.00333503 -166.92985152 203.99667495 -175.625 200.1875 C-176.46289062 199.80980469 -177.30078125 199.43210938 -178.1640625 199.04296875 C-201.95192174 190.29454118 -226.85767591 198.24382224 -243.0078125 217.37890625 Z M101.23828125 211.140625 C100.68574173 211.65542419 100.13320221 212.17022339 99.56391907 212.70062256 C91.75822048 220.03207889 84.23687588 227.65687159 76.6875 235.25 C75.15713794 236.78539241 73.62654038 238.32055013 72.09570312 239.85546875 C68.39442424 243.56761937 64.69603193 247.28262554 61 251 C62.42589194 254.24126049 64.1596468 256.41688423 66.6484375 258.9230957 C67.77100952 260.05996574 67.77100952 260.05996574 68.91625977 261.21980286 C69.72764404 262.03027573 70.53902832 262.8407486 71.375 263.67578125 C72.21409912 264.5191655 73.05319824 265.36254974 73.91772461 266.23149109 C75.69731326 268.01682401 77.47953061 269.79953996 79.26416016 271.57983398 C81.97054626 274.28308043 84.66339909 276.99930239 87.35546875 279.71679688 C89.0903334 281.45393675 90.82598628 283.19028986 92.5625 284.92578125 C93.35769043 285.73018143 94.15288086 286.5345816 94.97216797 287.36335754 C101.65931838 293.99666497 108.92985152 300.00332505 117.625 303.8125 C118.46289062 304.19019531 119.30078125 304.56789063 120.1640625 304.95703125 C134.06535372 310.06948959 149.28940288 309.52902221 163 304 C177.9691876 296.96448183 187.96443178 284.86635958 194.0546875 269.76171875 C198.79407939 255.91564411 196.97563306 239.29910673 190.71484375 226.33984375 C182.41022354 211.37302125 170.14652811 202.12117929 154 197 C135.22341988 192.11123867 115.14909608 198.06931184 101.23828125 211.140625 Z M-31.91091919 208.67041016 C-32.68813324 209.45206543 -33.46534729 210.2337207 -34.26611328 211.0390625 C-35.58725632 212.36043213 -35.58725632 212.36043213 -36.93508911 213.70849609 C-37.89693699 214.68055845 -38.85867553 215.652729 -39.8203125 216.625 C-40.80350893 217.6119254 -41.78714702 218.59841101 -42.77120972 219.58447266 C-45.36326347 222.18417201 -47.94925609 224.78982105 -50.53405762 227.39672852 C-53.17143405 230.05454345 -55.81446322 232.7067236 -58.45703125 235.359375 C-63.64358919 240.56739918 -68.82376076 245.78171782 -74 251 C-72.51657 254.44677 -70.56949812 256.67343301 -67.91748047 259.30957031 C-66.65639969 260.5704245 -66.65639969 260.5704245 -65.36984253 261.85675049 C-64.46146637 262.75480408 -63.55309021 263.65285767 -62.6171875 264.578125 C-61.68778351 265.5046991 -60.75837952 266.43127319 -59.80081177 267.38592529 C-57.3359615 269.84315789 -54.86516334 272.29432361 -52.39306641 274.7442627 C-49.86909235 277.24773809 -47.35080612 279.75692063 -44.83203125 282.265625 C-39.89356403 287.18267525 -34.948788 292.09333788 -30 297 C-26.55323 295.51657 -24.32656699 293.56949812 -21.69042969 290.91748047 C-20.4295755 289.65639969 -20.4295755 289.65639969 -19.14324951 288.36984253 C-18.24519592 287.46146637 -17.34714233 286.55309021 -16.421875 285.6171875 C-15.03201385 284.22308151 -15.03201385 284.22308151 -13.61407471 282.80081177 C-11.15684211 280.3359615 -8.70567639 277.86516334 -6.2557373 275.39306641 C-3.75226191 272.86909235 -1.24307937 270.35080612 1.265625 267.83203125 C6.18267525 262.89356403 11.09333788 257.948788 16 253 C14.51856023 249.56699701 12.58138096 247.32828517 9.94921875 244.69042969 C9.11495361 243.84986023 8.28068848 243.00929077 7.42114258 242.14324951 C6.51904053 241.24519592 5.61693848 240.34714233 4.6875 239.421875 C3.76283936 238.4953009 2.83817871 237.56872681 1.88549805 236.61407471 C-0.06821699 234.6574163 -2.02549111 232.70440857 -3.98535156 230.75390625 C-6.50084205 228.24984146 -9.00720549 225.73686276 -11.51100159 223.2211113 C-13.8983264 220.82484056 -16.29322188 218.4361985 -18.6875 216.046875 C-19.58960205 215.14072449 -20.4917041 214.23457397 -21.42114258 213.30096436 C-22.67254028 212.05902313 -22.67254028 212.05902313 -23.94921875 210.79199219 C-24.68487061 210.05793152 -25.42052246 209.32387085 -26.1784668 208.56756592 C-28.73627295 206.36638191 -29.37644161 206.45492291 -31.91091919 208.67041016 Z M-33.87963867 345.60498047 C-34.6777446 346.39355438 -35.47585052 347.1821283 -36.29814148 347.99459839 C-37.16268448 348.8600528 -38.02722748 349.7255072 -38.91796875 350.6171875 C-39.80857498 351.50350861 -40.69918121 352.38982971 -41.61677551 353.30300903 C-43.50827745 355.18875186 -45.39746572 357.07653672 -47.28344727 358.96777344 C-49.6776141 361.3676771 -52.08281376 363.75615426 -54.49149609 366.14147758 C-56.80735163 368.43884557 -59.11198378 370.74741868 -61.41796875 373.0546875 C-62.27239059 373.8998996 -63.12681244 374.74511169 -64.00712585 375.61593628 C-70.77149204 382.43207239 -76.92656241 389.75462656 -80.8125 398.625 C-81.37904297 399.88183594 -81.37904297 399.88183594 -81.95703125 401.1640625 C-87.06948959 415.06535372 -86.52902221 430.28940288 -81 444 C-74.21375066 458.43882839 -62.12590468 469.26279075 -47.328125 474.9921875 C-31.92869876 479.65539404 -16.3139112 478.64316182 -2 471 C11.83899912 462.55745842 20.79099208 451.24470914 25.875 435.875 C29.59970414 420.4408966 27.03478824 404.57154492 18.98925781 390.94042969 C16.84992945 387.77817259 14.45910874 385.01042626 11.8515625 382.23828125 C11.3363504 381.68574173 10.82113831 381.13320221 10.29031372 380.56391907 C3.70116685 373.54739059 -3.08851921 366.72542518 -9.89453125 359.92016602 C-12.161729 357.65073482 -14.42074521 355.37334849 -16.6796875 353.09570312 C-18.12190877 351.65055542 -19.56459892 350.20587547 -21.0078125 348.76171875 C-21.68167999 348.08066574 -22.35554749 347.39961273 -23.04983521 346.69792175 C-23.98253738 345.76983452 -23.98253738 345.76983452 -24.93408203 344.82299805 C-25.47968781 344.27596725 -26.02529358 343.72893646 -26.58743286 343.16532898 C-29.80330619 340.51232207 -31.44395732 343.18526674 -33.87963867 345.60498047 Z " fill="#FFFFFF" transform="translate(285,4)"/>
</svg>
