<?xml version="1.0" standalone="no"?>
<!DOCTYPE svg PUBLIC "-//W3C//DTD SVG 20010904//EN"
 "http://www.w3.org/TR/2001/REC-SVG-20010904/DTD/svg10.dtd">
<svg version="1.0" xmlns="http://www.w3.org/2000/svg"
 width="512.000000pt" height="512.000000pt" viewBox="0 0 512.000000 512.000000"
 preserveAspectRatio="xMidYMid meet">

<g transform="translate(0.000000,512.000000) scale(0.100000,-0.100000)"
fill="#000000" stroke="none">
<path d="M2396 5105 c-322 -61 -589 -314 -677 -640 -31 -113 -31 -317 0 -429
28 -104 87 -225 149 -306 28 -36 147 -162 266 -280 l216 -215 -232 -232 -232
-233 -241 238 c-291 288 -365 340 -564 394 -109 30 -314 29 -426 -1 -152 -41
-272 -108 -389 -220 -113 -109 -202 -261 -242 -416 -25 -97 -25 -313 0 -410
40 -155 129 -307 242 -416 118 -112 237 -179 389 -220 116 -31 308 -32 423 -1
204 55 274 103 567 394 l241 238 232 -233 232 -232 -216 -215 c-119 -118 -238
-244 -266 -280 -62 -81 -121 -202 -149 -306 -31 -112 -31 -316 0 -429 84 -313
321 -547 641 -632 92 -24 310 -24 403 1 158 42 275 106 384 210 129 121 210
257 254 421 31 117 32 308 1 425 -29 109 -87 227 -150 310 -28 36 -147 162
-266 280 l-216 215 232 232 232 233 241 -238 c293 -291 363 -339 567 -394 115
-31 307 -30 423 1 158 42 294 122 406 238 74 76 112 129 156 218 170 340 100
741 -174 1006 -113 110 -235 179 -388 220 -112 30 -317 31 -426 1 -199 -54
-273 -106 -564 -394 l-241 -238 -232 233 -232 232 216 215 c119 118 238 244
266 280 63 83 121 202 149 310 31 118 31 309 0 425 -84 312 -321 547 -636 630
-87 23 -272 28 -369 10z m287 -300 c267 -56 466 -324 442 -595 -8 -93 -42
-195 -91 -269 -20 -31 -135 -155 -256 -276 l-218 -220 -218 220 c-121 121
-236 245 -256 276 -186 282 -79 671 224 817 128 61 239 76 373 47z m-1632
-1709 c39 -14 97 -42 128 -62 31 -20 155 -135 276 -256 l220 -218 -220 -218
c-235 -234 -293 -279 -401 -317 -399 -138 -807 198 -746 616 51 349 412 570
743 455z m3314 19 c294 -62 490 -341 447 -636 -50 -346 -408 -568 -737 -458
-112 38 -171 84 -405 316 l-225 222 175 177 c96 97 208 204 247 239 153 131
318 178 498 140z m-1570 -325 l230 -230 -233 -233 -232 -232 -232 232 -233
233 230 230 c126 126 232 230 235 230 3 0 109 -104 235 -230z m-13 -1337 c230
-233 276 -291 313 -399 139 -400 -198 -807 -616 -746 -408 59 -619 529 -393
871 33 50 459 491 474 491 4 0 103 -98 222 -217z"/>
</g>
</svg>
